<svg width="23" height="23" viewBox="0 0 23 23" fill="none" xmlns="http://www.w3.org/2000/svg">
<path d="M11.375 0C5.09141 0 0 5.09141 0 11.375C0 17.6586 5.09141 22.75 11.375 22.75C17.6586 22.75 22.75 17.6586 22.75 11.375C22.75 5.09141 17.6586 0 11.375 0ZM17.1992 8.23047L9.8875 15.575H9.88203C9.78906 15.668 9.5375 15.8758 9.24766 15.8758C9.03984 15.8758 8.80469 15.7609 8.60781 15.5641L5.54531 12.5016C5.45781 12.4141 5.45781 12.2773 5.54531 12.1898L6.51875 11.2164C6.5625 11.1727 6.61719 11.1508 6.67188 11.1508C6.72656 11.1508 6.78125 11.1727 6.825 11.2164L9.25312 13.6445L15.925 6.92344C15.9688 6.87969 16.0234 6.85781 16.0781 6.85781C16.1383 6.85781 16.193 6.87969 16.2312 6.92344L17.1883 7.91328C17.2867 8.00625 17.2867 8.14297 17.1992 8.23047V8.23047Z" fill="#DBDBDB"/>
</svg>
