<svg viewBox="0 0 31 31" fill="none" xmlns="http://www.w3.org/2000/svg">
<path d="M12.4925 12.3181C9.09984 12.3181 6.36331 15.0781 6.36331 18.4999C6.36331 21.9217 9.09984 24.6817 12.4925 24.6817C15.8852 24.6817 18.6217 21.9217 18.6217 18.4999C18.6217 15.0781 15.8852 12.3181 12.4925 12.3181ZM12.4925 22.5189C10.3001 22.5189 8.50772 20.7165 8.50772 18.4999C8.50772 16.2833 10.2947 14.4809 12.4925 14.4809C14.6903 14.4809 16.4773 16.2833 16.4773 18.4999C16.4773 20.7165 14.6849 22.5189 12.4925 22.5189V22.5189ZM20.302 12.0652C20.302 12.8669 19.6619 13.5071 18.8724 13.5071C18.0776 13.5071 17.4428 12.8615 17.4428 12.0652C17.4428 11.269 18.0829 10.6234 18.8724 10.6234C19.6619 10.6234 20.302 11.269 20.302 12.0652ZM24.3615 13.5286C24.2708 11.5972 23.8334 9.88628 22.4304 8.47668C21.0328 7.06709 19.3365 6.62592 17.4214 6.52907C15.4477 6.41609 9.53192 6.41609 7.55821 6.52907C5.6485 6.62054 3.95217 7.06171 2.54924 8.4713C1.1463 9.8809 0.714215 11.5918 0.618196 13.5233C0.506174 15.5139 0.506174 21.4805 0.618196 23.4711C0.70888 25.4026 1.1463 27.1135 2.54924 28.5231C3.95217 29.9327 5.64317 30.3739 7.55821 30.4707C9.53192 30.5837 15.4477 30.5837 17.4214 30.4707C19.3365 30.3792 21.0328 29.9381 22.4304 28.5231C23.828 27.1135 24.2654 25.4026 24.3615 23.4711C24.4735 21.4805 24.4735 15.5193 24.3615 13.5286V13.5286ZM21.8116 25.6071C21.3956 26.6616 20.5901 27.474 19.5392 27.899C17.9656 28.5285 14.2315 28.3832 12.4925 28.3832C10.7535 28.3832 7.0141 28.5231 5.4458 27.899C4.40026 27.4793 3.59477 26.6669 3.17336 25.6071C2.54924 24.0199 2.69326 20.2538 2.69326 18.4999C2.69326 16.746 2.55457 12.9745 3.17336 11.3927C3.58944 10.3382 4.39493 9.52581 5.4458 9.10078C7.01943 8.4713 10.7535 8.61657 12.4925 8.61657C14.2315 8.61657 17.9709 8.47668 19.5392 9.10078C20.5847 9.52043 21.3902 10.3328 21.8116 11.3927C22.4358 12.9799 22.2917 16.746 22.2917 18.4999C22.2917 20.2538 22.4358 24.0253 21.8116 25.6071Z" fill="#DFE1EB"/>
<path fill-rule="evenodd" clip-rule="evenodd" d="M24.5522 0.178101C21.106 0.178101 18.3022 2.98185 18.3022 6.4281C18.3022 9.87435 21.106 12.6781 24.5522 12.6781C27.9985 12.6781 30.8022 9.87435 30.8022 6.4281C30.8022 2.98185 27.9985 0.178101 24.5522 0.178101" fill="#4CF39D"/>
<path fill-rule="evenodd" clip-rule="evenodd" d="M26.4272 7.0531H25.1772V8.3031C25.1772 8.64685 24.896 8.9281 24.5522 8.9281C24.2085 8.9281 23.9272 8.64685 23.9272 8.3031V7.0531H22.6772C22.3335 7.0531 22.0522 6.77185 22.0522 6.4281C22.0522 6.08435 22.3335 5.8031 22.6772 5.8031H23.9272V4.5531C23.9272 4.20935 24.2085 3.9281 24.5522 3.9281C24.896 3.9281 25.1772 4.20935 25.1772 4.5531V5.8031H26.4272C26.771 5.8031 27.0522 6.08435 27.0522 6.4281C27.0522 6.77185 26.771 7.0531 26.4272 7.0531" fill="#7B7D88"/>
</svg>
