<svg viewBox="0 0 25 32" fill="none" xmlns="http://www.w3.org/2000/svg">
<path d="M4.51315 31.2777V18.9531H0.543457V14.0555H4.51315V10.1966C4.51315 6.00411 6.97673 3.72217 10.5738 3.72217C12.2973 3.72217 13.7775 3.85672 14.2071 3.91592V8.29682H11.7124C9.75603 8.29682 9.37821 9.26557 9.37821 10.681V14.0555H13.793L13.1875 18.9531H9.37821V31.2777" fill="#DFE1EB"/>
<path fill-rule="evenodd" clip-rule="evenodd" d="M19.375 8.125H18.125V9.375C18.125 9.71875 17.8438 10 17.5 10C17.1562 10 16.875 9.71875 16.875 9.375V8.125H15.625C15.2812 8.125 15 7.84375 15 7.5C15 7.15625 15.2812 6.875 15.625 6.875H16.875V5.625C16.875 5.28125 17.1562 5 17.5 5C17.8438 5 18.125 5.28125 18.125 5.625V6.875H19.375C19.7188 6.875 20 7.15625 20 7.5C20 7.84375 19.7188 8.125 19.375 8.125M17.5 1.25C14.0538 1.25 11.25 4.05375 11.25 7.5C11.25 10.9462 14.0538 13.75 17.5 13.75C20.9462 13.75 23.75 10.9462 23.75 7.5C23.75 4.05375 20.9462 1.25 17.5 1.25" fill="#4CF39D"/>
</svg>
