<svg width="23" height="23" viewBox="0 0 23 23" fill="none" xmlns="http://www.w3.org/2000/svg">
<path d="M11.375 0H11.3367C8.30703 0.0109375 5.46328 1.19766 3.31953 3.34141C1.18125 5.49062 0 8.33984 0 11.375C0 14.4102 1.18125 17.2594 3.325 19.4086C5.46328 21.5523 8.3125 22.7391 11.3422 22.75H11.3805C17.6531 22.75 22.7555 17.6477 22.7555 11.375C22.7555 5.10234 17.6477 0 11.375 0ZM21.2297 10.6094H16.9859C16.9367 9.14922 16.7562 7.75469 16.45 6.44219C17.3852 6.14141 18.293 5.75859 19.168 5.29375C20.3711 6.83594 21.082 8.6625 21.2297 10.6094ZM10.6094 10.6094H7.22969C7.27344 9.26953 7.4375 8.00078 7.71094 6.83047C8.6625 7.04375 9.63047 7.175 10.6094 7.21875V10.6094ZM10.6094 12.1406V15.5258C9.63594 15.5695 8.6625 15.7008 7.71094 15.9141C7.4375 14.7438 7.27344 13.475 7.22969 12.1406H10.6094ZM12.1406 12.1406H15.493C15.4492 13.475 15.2852 14.7437 15.0117 15.9086C14.0711 15.6953 13.1086 15.5695 12.1406 15.5258V12.1406ZM12.1406 10.6094V7.21875C13.1141 7.175 14.0766 7.04375 15.0117 6.83594C15.2852 8.00625 15.4492 9.26953 15.493 10.6094H12.1406ZM18.1234 4.16172C17.4508 4.49531 16.7562 4.77969 16.0453 5.00938C15.657 3.83906 15.1648 2.82734 14.5961 2.02891C15.9086 2.48281 17.1062 3.21016 18.1234 4.16172ZM14.6016 5.40313C13.7977 5.57813 12.9719 5.6875 12.1406 5.73125V1.71719C13.0703 2.22031 13.9781 3.57109 14.6016 5.40313ZM10.6094 1.69531V5.72578C9.76719 5.68203 8.93594 5.57266 8.12109 5.39219C8.75547 3.54375 9.67422 2.19297 10.6094 1.69531ZM8.11562 2.04531C7.55234 2.83828 7.06563 3.84453 6.67734 5.00391C5.97734 4.77422 5.28828 4.48984 4.62656 4.16172C5.63281 3.21562 6.81953 2.49375 8.11562 2.04531V2.04531ZM3.58203 5.29922C4.44609 5.75859 5.34844 6.14141 6.27266 6.43672C5.96094 7.74375 5.78047 9.14375 5.73672 10.6039H1.52578C1.66797 8.66797 2.37891 6.84141 3.58203 5.29922V5.29922ZM1.52031 12.1406H5.73125C5.78047 13.6008 5.96094 15.0008 6.26719 16.3078C5.34297 16.6086 4.44063 16.9914 3.57656 17.4453C2.37891 15.9086 1.66797 14.082 1.52031 12.1406V12.1406ZM4.62109 18.5883C5.28281 18.2602 5.97188 17.9758 6.67734 17.7461C7.06563 18.9109 7.55234 19.9117 8.11562 20.7102C6.81953 20.2508 5.63281 19.5344 4.62109 18.5883ZM8.12109 17.3523C8.93594 17.1719 9.77266 17.0625 10.6094 17.0188V21.0547C9.66875 20.557 8.75547 19.2008 8.12109 17.3523V17.3523ZM12.1406 21.0328V17.0133C12.9719 17.057 13.7977 17.1664 14.6016 17.3414C13.9781 19.1789 13.0703 20.5297 12.1406 21.0328ZM14.6016 20.7211C15.1703 19.9227 15.6625 18.9109 16.0508 17.7406C16.7617 17.9703 17.4617 18.2602 18.1289 18.5938C17.1117 19.5398 15.9086 20.2672 14.6016 20.7211ZM19.168 17.4508C18.293 16.9859 17.3852 16.6031 16.45 16.3023C16.7562 14.9953 16.9367 13.6008 16.9859 12.1406H21.2297C21.082 14.082 20.3766 15.9086 19.168 17.4508V17.4508Z" fill="#9A99A2"/>
</svg>
