<svg width="342" height="222" viewBox="0 0 342 222" fill="none" xmlns="http://www.w3.org/2000/svg">
<g clip-path="url(#clip0)">
<rect width="342" height="222" fill="white"/>
<path d="M0 0H255L342 109.525L255 224H0V0Z" fill="#00FF9D" fill-opacity="0.4"/>
<path d="M0 20H255L342 108.5L255 201H0V20Z" fill="white"/>
<path d="M36.103 106V91.0088H38.5537V103.898H44.9009V106H36.103ZM52.1812 106.205C50.4175 106.205 49.0366 105.692 48.0386 104.667C47.0474 103.635 46.5518 102.216 46.5518 100.412C46.5518 98.5591 47.0132 97.103 47.936 96.0435C48.8589 94.9839 50.127 94.4541 51.7402 94.4541C53.2373 94.4541 54.4199 94.9087 55.2881 95.8179C56.1562 96.7271 56.5903 97.978 56.5903 99.5708V100.873H49.0332C49.0674 101.974 49.3647 102.821 49.9253 103.416C50.4858 104.004 51.2754 104.298 52.2939 104.298C52.9639 104.298 53.5859 104.236 54.1602 104.113C54.7412 103.983 55.3633 103.771 56.0264 103.478V105.436C55.4385 105.716 54.8438 105.915 54.2422 106.031C53.6406 106.147 52.9536 106.205 52.1812 106.205ZM51.7402 96.2793C50.9746 96.2793 50.3594 96.522 49.8945 97.0073C49.4365 97.4927 49.1631 98.2002 49.0742 99.1299H54.2217C54.208 98.1934 53.9824 97.4858 53.5449 97.0073C53.1074 96.522 52.5059 96.2793 51.7402 96.2793ZM63.5527 104.257C64.1406 104.257 64.7285 104.165 65.3164 103.98V105.795C65.0498 105.911 64.7046 106.007 64.2808 106.082C63.8638 106.164 63.4297 106.205 62.9785 106.205C60.6953 106.205 59.5537 105.002 59.5537 102.596V96.4844H58.0054V95.418L59.6665 94.5361L60.4868 92.1367H61.9736V94.6592H65.2036V96.4844H61.9736V102.555C61.9736 103.136 62.1172 103.566 62.4043 103.847C62.6982 104.12 63.0811 104.257 63.5527 104.257ZM69.5205 91.0088L69.6743 91.2344C69.312 92.6631 68.7104 94.3003 67.8696 96.146H66.1265C66.5981 94.1704 66.9399 92.458 67.1519 91.0088H69.5205ZM79.272 102.77C79.272 103.877 78.8687 104.729 78.062 105.323C77.2554 105.911 76.1001 106.205 74.5962 106.205C73.0854 106.205 71.8721 105.976 70.9561 105.518V103.437C72.2891 104.052 73.5298 104.359 74.6782 104.359C76.1616 104.359 76.9033 103.912 76.9033 103.016C76.9033 102.729 76.8213 102.49 76.6572 102.298C76.4932 102.107 76.2231 101.909 75.8472 101.704C75.4712 101.499 74.9482 101.266 74.2783 101.006C72.9727 100.5 72.0874 99.9946 71.6226 99.4888C71.1646 98.9829 70.9355 98.3267 70.9355 97.52C70.9355 96.5493 71.3252 95.7974 72.1045 95.2642C72.8906 94.7241 73.957 94.4541 75.3037 94.4541C76.6367 94.4541 77.8979 94.7241 79.0874 95.2642L78.3081 97.0791C77.0845 96.5732 76.0557 96.3203 75.2217 96.3203C73.9502 96.3203 73.3145 96.6826 73.3145 97.4072C73.3145 97.7627 73.4785 98.0635 73.8066 98.3096C74.1416 98.5557 74.8662 98.894 75.9805 99.3247C76.917 99.687 77.5972 100.019 78.021 100.319C78.4448 100.62 78.7593 100.969 78.9644 101.365C79.1694 101.755 79.272 102.223 79.272 102.77ZM96.9189 94.6592V95.9819L94.981 96.3408C95.1587 96.5801 95.3057 96.874 95.4219 97.2227C95.5381 97.5713 95.5962 97.9404 95.5962 98.3301C95.5962 99.499 95.1929 100.418 94.3862 101.088C93.5796 101.758 92.4688 102.093 91.0537 102.093C90.6914 102.093 90.3633 102.066 90.0693 102.011C89.5498 102.333 89.29 102.708 89.29 103.139C89.29 103.399 89.4097 103.594 89.6489 103.724C89.895 103.854 90.3428 103.918 90.9922 103.918H92.9712C94.2222 103.918 95.1724 104.185 95.8218 104.718C96.4712 105.251 96.7959 106.021 96.7959 107.025C96.7959 108.311 96.2661 109.302 95.2065 109.999C94.147 110.696 92.6157 111.045 90.6128 111.045C89.0679 111.045 87.8887 110.771 87.0752 110.225C86.2617 109.678 85.855 108.898 85.855 107.887C85.855 107.189 86.0737 106.602 86.5112 106.123C86.9556 105.651 87.5742 105.323 88.3672 105.139C88.0459 105.002 87.7793 104.783 87.5674 104.482C87.3623 104.175 87.2598 103.854 87.2598 103.519C87.2598 103.095 87.3794 102.736 87.6187 102.442C87.8579 102.148 88.2134 101.857 88.6851 101.57C88.0972 101.317 87.6187 100.907 87.2495 100.34C86.8872 99.7656 86.7061 99.0957 86.7061 98.3301C86.7061 97.0996 87.0923 96.146 87.8647 95.4692C88.644 94.7925 89.7515 94.4541 91.187 94.4541C91.5083 94.4541 91.8433 94.478 92.1919 94.5259C92.5474 94.5669 92.814 94.6113 92.9917 94.6592H96.9189ZM88.0083 107.764C88.0083 108.283 88.2407 108.683 88.7056 108.963C89.1772 109.244 89.8369 109.384 90.6846 109.384C91.9971 109.384 92.9746 109.196 93.6172 108.82C94.2598 108.444 94.5811 107.945 94.5811 107.323C94.5811 106.831 94.4033 106.479 94.0479 106.267C93.6992 106.062 93.0464 105.959 92.0894 105.959H90.2642C89.5737 105.959 89.0234 106.12 88.6133 106.441C88.21 106.769 88.0083 107.21 88.0083 107.764ZM89.0439 98.3301C89.0439 99.041 89.2251 99.5879 89.5874 99.9707C89.9565 100.354 90.4829 100.545 91.1665 100.545C92.561 100.545 93.2583 99.7998 93.2583 98.3096C93.2583 97.5713 93.084 97.0039 92.7354 96.6074C92.3936 96.2041 91.8706 96.0024 91.1665 96.0024C90.4692 96.0024 89.9395 96.2007 89.5771 96.5972C89.2217 96.9937 89.0439 97.5713 89.0439 98.3301ZM109.09 100.309C109.09 102.162 108.615 103.607 107.665 104.646C106.715 105.686 105.392 106.205 103.697 106.205C102.637 106.205 101.701 105.966 100.887 105.487C100.074 105.009 99.4482 104.322 99.0107 103.426C98.5732 102.531 98.3545 101.492 98.3545 100.309C98.3545 98.4702 98.8262 97.0347 99.7695 96.0024C100.713 94.9702 102.042 94.4541 103.758 94.4541C105.399 94.4541 106.698 94.9839 107.655 96.0435C108.612 97.0962 109.09 98.5181 109.09 100.309ZM100.836 100.309C100.836 102.927 101.803 104.236 103.738 104.236C105.652 104.236 106.609 102.927 106.609 100.309C106.609 97.7183 105.645 96.4229 103.717 96.4229C102.706 96.4229 101.971 96.7578 101.513 97.4277C101.062 98.0977 100.836 99.0581 100.836 100.309ZM127.383 100.309C127.383 102.162 126.908 103.607 125.958 104.646C125.008 105.686 123.685 106.205 121.99 106.205C120.93 106.205 119.994 105.966 119.18 105.487C118.367 105.009 117.741 104.322 117.304 103.426C116.866 102.531 116.647 101.492 116.647 100.309C116.647 98.4702 117.119 97.0347 118.062 96.0024C119.006 94.9702 120.335 94.4541 122.051 94.4541C123.692 94.4541 124.991 94.9839 125.948 96.0435C126.905 97.0962 127.383 98.5181 127.383 100.309ZM119.129 100.309C119.129 102.927 120.096 104.236 122.031 104.236C123.945 104.236 124.902 102.927 124.902 100.309C124.902 97.7183 123.938 96.4229 122.01 96.4229C120.999 96.4229 120.264 96.7578 119.806 97.4277C119.354 98.0977 119.129 99.0581 119.129 100.309ZM132.746 106L128.439 94.6592H130.982L133.29 101.252C133.686 102.36 133.925 103.255 134.007 103.939H134.089C134.151 103.447 134.39 102.551 134.807 101.252L137.114 94.6592H139.678L135.351 106H132.746ZM146.353 106.205C144.589 106.205 143.208 105.692 142.21 104.667C141.219 103.635 140.724 102.216 140.724 100.412C140.724 98.5591 141.185 97.103 142.108 96.0435C143.031 94.9839 144.299 94.4541 145.912 94.4541C147.409 94.4541 148.592 94.9087 149.46 95.8179C150.328 96.7271 150.762 97.978 150.762 99.5708V100.873H143.205C143.239 101.974 143.537 102.821 144.097 103.416C144.658 104.004 145.447 104.298 146.466 104.298C147.136 104.298 147.758 104.236 148.332 104.113C148.913 103.983 149.535 103.771 150.198 103.478V105.436C149.61 105.716 149.016 105.915 148.414 106.031C147.812 106.147 147.125 106.205 146.353 106.205ZM145.912 96.2793C145.146 96.2793 144.531 96.522 144.066 97.0073C143.608 97.4927 143.335 98.2002 143.246 99.1299H148.394C148.38 98.1934 148.154 97.4858 147.717 97.0073C147.279 96.522 146.678 96.2793 145.912 96.2793ZM159.252 94.4541C159.738 94.4541 160.138 94.4883 160.452 94.5566L160.216 96.8022C159.875 96.7202 159.519 96.6792 159.15 96.6792C158.186 96.6792 157.403 96.9937 156.802 97.6226C156.207 98.2515 155.91 99.0684 155.91 100.073V106H153.5V94.6592H155.387L155.705 96.6587H155.828C156.204 95.9819 156.692 95.4453 157.294 95.0488C157.902 94.6523 158.555 94.4541 159.252 94.4541ZM177.997 106H175.577V99.0273C175.577 98.1523 175.399 97.4995 175.043 97.0688C174.695 96.6382 174.138 96.4229 173.372 96.4229C172.36 96.4229 171.615 96.7271 171.137 97.3354C170.665 97.937 170.429 98.9487 170.429 100.371V106H168.02V90.0449H170.429V94.0952C170.429 94.7446 170.388 95.4385 170.306 96.1768H170.46C170.788 95.6299 171.243 95.2061 171.824 94.9053C172.412 94.6045 173.095 94.4541 173.875 94.4541C176.623 94.4541 177.997 95.8384 177.997 98.6069V106ZM191.409 100.309C191.409 102.162 190.934 103.607 189.983 104.646C189.033 105.686 187.71 106.205 186.015 106.205C184.956 106.205 184.019 105.966 183.206 105.487C182.392 105.009 181.767 104.322 181.329 103.426C180.892 102.531 180.673 101.492 180.673 100.309C180.673 98.4702 181.145 97.0347 182.088 96.0024C183.031 94.9702 184.361 94.4541 186.077 94.4541C187.717 94.4541 189.016 94.9839 189.973 96.0435C190.93 97.0962 191.409 98.5181 191.409 100.309ZM183.154 100.309C183.154 102.927 184.122 104.236 186.056 104.236C187.97 104.236 188.927 102.927 188.927 100.309C188.927 97.7183 187.963 96.4229 186.036 96.4229C185.024 96.4229 184.289 96.7578 183.831 97.4277C183.38 98.0977 183.154 99.0581 183.154 100.309ZM203.488 106L202.021 100.709C201.844 100.148 201.522 98.8462 201.058 96.8022H200.965C200.569 98.6479 200.254 99.957 200.022 100.729L198.515 106H195.849L192.67 94.6592H195.131L196.577 100.248C196.905 101.628 197.137 102.811 197.274 103.795H197.335C197.404 103.296 197.506 102.726 197.643 102.083C197.787 101.434 197.91 100.948 198.012 100.627L199.735 94.6592H202.38L204.052 100.627C204.154 100.962 204.281 101.475 204.431 102.165C204.588 102.855 204.681 103.392 204.708 103.775H204.79C204.893 102.934 205.132 101.758 205.508 100.248L206.974 94.6592H209.394L206.195 106H203.488ZM228.507 106H225.667L220.96 99.2119L219.515 100.391V106H217.064V91.0088H219.515V98.166C220.185 97.3457 220.851 96.5562 221.514 95.7974L225.564 91.0088H228.354C225.735 94.085 223.859 96.2759 222.724 97.5815L228.507 106ZM235.193 106.205C233.429 106.205 232.048 105.692 231.05 104.667C230.059 103.635 229.563 102.216 229.563 100.412C229.563 98.5591 230.025 97.103 230.948 96.0435C231.871 94.9839 233.139 94.4541 234.752 94.4541C236.249 94.4541 237.432 94.9087 238.3 95.8179C239.168 96.7271 239.602 97.978 239.602 99.5708V100.873H232.045C232.079 101.974 232.376 102.821 232.937 103.416C233.498 104.004 234.287 104.298 235.306 104.298C235.976 104.298 236.598 104.236 237.172 104.113C237.753 103.983 238.375 103.771 239.038 103.478V105.436C238.45 105.716 237.855 105.915 237.254 106.031C236.652 106.147 235.965 106.205 235.193 106.205ZM234.752 96.2793C233.986 96.2793 233.371 96.522 232.906 97.0073C232.448 97.4927 232.175 98.2002 232.086 99.1299H237.233C237.22 98.1934 236.994 97.4858 236.557 97.0073C236.119 96.522 235.518 96.2793 234.752 96.2793ZM240.617 94.6592H243.242L245.549 101.088C245.898 102.004 246.13 102.866 246.247 103.672H246.329C246.39 103.296 246.503 102.842 246.667 102.309C246.831 101.769 247.699 99.2188 249.271 94.6592H251.876L247.026 107.507C246.144 109.866 244.674 111.045 242.617 111.045C242.083 111.045 241.564 110.987 241.058 110.871V108.963C241.42 109.045 241.834 109.086 242.299 109.086C243.461 109.086 244.278 108.413 244.75 107.066L245.17 106L240.617 94.6592ZM49.3203 121.896C47.9121 121.896 46.8047 122.395 45.998 123.393C45.1914 124.391 44.7881 125.768 44.7881 127.525C44.7881 129.364 45.1743 130.755 45.9468 131.698C46.7261 132.642 47.8506 133.113 49.3203 133.113C49.9561 133.113 50.5713 133.052 51.166 132.929C51.7607 132.799 52.3794 132.635 53.022 132.437V134.539C51.8462 134.983 50.5132 135.205 49.0229 135.205C46.8286 135.205 45.1436 134.542 43.9678 133.216C42.792 131.883 42.2041 129.979 42.2041 127.504C42.2041 125.946 42.4878 124.582 43.0552 123.413C43.6294 122.244 44.4565 121.349 45.5366 120.727C46.6167 120.104 47.8848 119.793 49.3408 119.793C50.8721 119.793 52.2871 120.115 53.5859 120.757L52.7041 122.798C52.1982 122.559 51.6616 122.35 51.0942 122.172C50.5337 121.988 49.9424 121.896 49.3203 121.896ZM66.0547 129.309C66.0547 131.162 65.5796 132.607 64.6294 133.646C63.6792 134.686 62.3564 135.205 60.6611 135.205C59.6016 135.205 58.665 134.966 57.8516 134.487C57.0381 134.009 56.4126 133.322 55.9751 132.426C55.5376 131.531 55.3188 130.492 55.3188 129.309C55.3188 127.47 55.7905 126.035 56.7339 125.002C57.6772 123.97 59.0068 123.454 60.7227 123.454C62.3633 123.454 63.6621 123.984 64.6191 125.043C65.5762 126.096 66.0547 127.518 66.0547 129.309ZM57.8003 129.309C57.8003 131.927 58.7676 133.236 60.7021 133.236C62.6162 133.236 63.5732 131.927 63.5732 129.309C63.5732 126.718 62.6094 125.423 60.6816 125.423C59.6699 125.423 58.9351 125.758 58.4771 126.428C58.0259 127.098 57.8003 128.058 57.8003 129.309ZM78.8105 135H76.3906V128.027C76.3906 127.152 76.2129 126.5 75.8574 126.069C75.5088 125.638 74.9517 125.423 74.186 125.423C73.1675 125.423 72.4224 125.724 71.9507 126.325C71.479 126.927 71.2432 127.935 71.2432 129.35V135H68.8335V123.659H70.7202L71.0586 125.146H71.1816C71.5234 124.606 72.0088 124.189 72.6377 123.895C73.2666 123.601 73.9639 123.454 74.7295 123.454C77.4502 123.454 78.8105 124.838 78.8105 127.607V135ZM89.7822 131.77C89.7822 132.877 89.3789 133.729 88.5723 134.323C87.7656 134.911 86.6104 135.205 85.1064 135.205C83.5957 135.205 82.3823 134.976 81.4663 134.518V132.437C82.7993 133.052 84.04 133.359 85.1885 133.359C86.6719 133.359 87.4136 132.912 87.4136 132.016C87.4136 131.729 87.3315 131.49 87.1675 131.298C87.0034 131.107 86.7334 130.909 86.3574 130.704C85.9814 130.499 85.4585 130.266 84.7886 130.006C83.4829 129.5 82.5977 128.995 82.1328 128.489C81.6748 127.983 81.4458 127.327 81.4458 126.52C81.4458 125.549 81.8354 124.797 82.6147 124.264C83.4009 123.724 84.4673 123.454 85.814 123.454C87.147 123.454 88.4082 123.724 89.5977 124.264L88.8184 126.079C87.5947 125.573 86.5659 125.32 85.7319 125.32C84.4604 125.32 83.8247 125.683 83.8247 126.407C83.8247 126.763 83.9888 127.063 84.3169 127.31C84.6519 127.556 85.3765 127.894 86.4907 128.325C87.4272 128.687 88.1074 129.019 88.5312 129.319C88.9551 129.62 89.2695 129.969 89.4746 130.365C89.6797 130.755 89.7822 131.223 89.7822 131.77ZM97.3496 135.205C95.5859 135.205 94.2051 134.692 93.207 133.667C92.2158 132.635 91.7202 131.216 91.7202 129.412C91.7202 127.559 92.1816 126.103 93.1045 125.043C94.0273 123.984 95.2954 123.454 96.9087 123.454C98.4058 123.454 99.5884 123.909 100.457 124.818C101.325 125.727 101.759 126.978 101.759 128.571V129.873H94.2017C94.2358 130.974 94.5332 131.821 95.0938 132.416C95.6543 133.004 96.4438 133.298 97.4624 133.298C98.1323 133.298 98.7544 133.236 99.3286 133.113C99.9097 132.983 100.532 132.771 101.195 132.478V134.436C100.607 134.716 100.012 134.915 99.4106 135.031C98.8091 135.147 98.1221 135.205 97.3496 135.205ZM96.9087 125.279C96.1431 125.279 95.5278 125.522 95.063 126.007C94.605 126.493 94.3315 127.2 94.2427 128.13H99.3901C99.3765 127.193 99.1509 126.486 98.7134 126.007C98.2759 125.522 97.6743 125.279 96.9087 125.279ZM110.249 123.454C110.734 123.454 111.134 123.488 111.449 123.557L111.213 125.802C110.871 125.72 110.516 125.679 110.146 125.679C109.183 125.679 108.4 125.994 107.798 126.623C107.204 127.251 106.906 128.068 106.906 129.073V135H104.497V123.659H106.383L106.701 125.659H106.824C107.2 124.982 107.689 124.445 108.291 124.049C108.899 123.652 109.552 123.454 110.249 123.454ZM116.145 135L111.838 123.659H114.381L116.688 130.252C117.085 131.36 117.324 132.255 117.406 132.939H117.488C117.55 132.447 117.789 131.551 118.206 130.252L120.513 123.659H123.077L118.75 135H116.145ZM131.895 135L131.413 133.421H131.331C130.784 134.111 130.234 134.583 129.68 134.836C129.126 135.082 128.416 135.205 127.547 135.205C126.433 135.205 125.562 134.904 124.933 134.303C124.311 133.701 124 132.85 124 131.75C124 130.581 124.434 129.699 125.302 129.104C126.17 128.509 127.493 128.185 129.27 128.13L131.229 128.068V127.463C131.229 126.739 131.058 126.199 130.716 125.843C130.381 125.481 129.858 125.3 129.147 125.3C128.566 125.3 128.009 125.385 127.476 125.556C126.942 125.727 126.43 125.929 125.938 126.161L125.158 124.438C125.773 124.117 126.447 123.875 127.178 123.71C127.91 123.54 128.6 123.454 129.25 123.454C130.692 123.454 131.779 123.769 132.51 124.397C133.249 125.026 133.618 126.014 133.618 127.361V135H131.895ZM128.306 133.359C129.181 133.359 129.882 133.117 130.408 132.631C130.941 132.139 131.208 131.452 131.208 130.57V129.586L129.752 129.647C128.617 129.688 127.79 129.88 127.271 130.222C126.758 130.557 126.501 131.073 126.501 131.77C126.501 132.276 126.652 132.669 126.953 132.949C127.253 133.223 127.705 133.359 128.306 133.359ZM141.206 133.257C141.793 133.257 142.381 133.165 142.969 132.98V134.795C142.703 134.911 142.357 135.007 141.934 135.082C141.517 135.164 141.083 135.205 140.631 135.205C138.348 135.205 137.207 134.002 137.207 131.596V125.484H135.658V124.418L137.319 123.536L138.14 121.137H139.626V123.659H142.856V125.484H139.626V131.555C139.626 132.136 139.77 132.566 140.057 132.847C140.351 133.12 140.734 133.257 141.206 133.257ZM147.655 135H145.246V123.659H147.655V135ZM145.102 120.655C145.102 120.224 145.218 119.893 145.451 119.66C145.69 119.428 146.028 119.312 146.466 119.312C146.89 119.312 147.218 119.428 147.45 119.66C147.689 119.893 147.809 120.224 147.809 120.655C147.809 121.065 147.689 121.39 147.45 121.629C147.218 121.861 146.89 121.978 146.466 121.978C146.028 121.978 145.69 121.861 145.451 121.629C145.218 121.39 145.102 121.065 145.102 120.655ZM161.17 129.309C161.17 131.162 160.695 132.607 159.745 133.646C158.794 134.686 157.472 135.205 155.776 135.205C154.717 135.205 153.78 134.966 152.967 134.487C152.153 134.009 151.528 133.322 151.09 132.426C150.653 131.531 150.434 130.492 150.434 129.309C150.434 127.47 150.906 126.035 151.849 125.002C152.792 123.97 154.122 123.454 155.838 123.454C157.479 123.454 158.777 123.984 159.734 125.043C160.691 126.096 161.17 127.518 161.17 129.309ZM152.916 129.309C152.916 131.927 153.883 133.236 155.817 133.236C157.731 133.236 158.688 131.927 158.688 129.309C158.688 126.718 157.725 125.423 155.797 125.423C154.785 125.423 154.05 125.758 153.592 126.428C153.141 127.098 152.916 128.058 152.916 129.309ZM173.926 135H171.506V128.027C171.506 127.152 171.328 126.5 170.973 126.069C170.624 125.638 170.067 125.423 169.301 125.423C168.283 125.423 167.538 125.724 167.066 126.325C166.594 126.927 166.358 127.935 166.358 129.35V135H163.949V123.659H165.835L166.174 125.146H166.297C166.639 124.606 167.124 124.189 167.753 123.895C168.382 123.601 169.079 123.454 169.845 123.454C172.565 123.454 173.926 124.838 173.926 127.607V135ZM196.823 135H194.157L191.614 126.059C191.504 125.669 191.368 125.108 191.204 124.377C191.04 123.639 190.94 123.126 190.906 122.839C190.838 123.276 190.725 123.844 190.568 124.541C190.417 125.238 190.291 125.758 190.188 126.1L187.707 135H185.041L183.103 127.494L181.134 120.009H183.636L185.779 128.745C186.114 130.146 186.354 131.384 186.497 132.457C186.572 131.876 186.685 131.227 186.835 130.509C186.986 129.791 187.123 129.21 187.246 128.766L189.686 120.009H192.116L194.618 128.807C194.857 129.62 195.11 130.837 195.377 132.457C195.479 131.479 195.726 130.235 196.115 128.725L198.248 120.009H200.729L196.823 135ZM212.665 129.309C212.665 131.162 212.19 132.607 211.24 133.646C210.29 134.686 208.967 135.205 207.271 135.205C206.212 135.205 205.275 134.966 204.462 134.487C203.648 134.009 203.023 133.322 202.585 132.426C202.148 131.531 201.929 130.492 201.929 129.309C201.929 127.47 202.401 126.035 203.344 125.002C204.288 123.97 205.617 123.454 207.333 123.454C208.974 123.454 210.272 123.984 211.229 125.043C212.187 126.096 212.665 127.518 212.665 129.309ZM204.411 129.309C204.411 131.927 205.378 133.236 207.312 133.236C209.227 133.236 210.184 131.927 210.184 129.309C210.184 126.718 209.22 125.423 207.292 125.423C206.28 125.423 205.545 125.758 205.087 126.428C204.636 127.098 204.411 128.058 204.411 129.309ZM221.196 123.454C221.682 123.454 222.082 123.488 222.396 123.557L222.16 125.802C221.818 125.72 221.463 125.679 221.094 125.679C220.13 125.679 219.347 125.994 218.746 126.623C218.151 127.251 217.854 128.068 217.854 129.073V135H215.444V123.659H217.331L217.648 125.659H217.771C218.147 124.982 218.636 124.445 219.238 124.049C219.846 123.652 220.499 123.454 221.196 123.454ZM226.836 129.012L228.2 127.31L231.625 123.659H234.403L229.84 128.53L234.69 135H231.86L228.22 130.027L226.897 131.114V135H224.508V119.045H226.897V126.828L226.774 129.012H226.836ZM244.145 131.77C244.145 132.877 243.741 133.729 242.935 134.323C242.128 134.911 240.973 135.205 239.469 135.205C237.958 135.205 236.745 134.976 235.829 134.518V132.437C237.162 133.052 238.402 133.359 239.551 133.359C241.034 133.359 241.776 132.912 241.776 132.016C241.776 131.729 241.694 131.49 241.53 131.298C241.366 131.107 241.096 130.909 240.72 130.704C240.344 130.499 239.821 130.266 239.151 130.006C237.845 129.5 236.96 128.995 236.495 128.489C236.037 127.983 235.808 127.327 235.808 126.52C235.808 125.549 236.198 124.797 236.977 124.264C237.763 123.724 238.83 123.454 240.176 123.454C241.509 123.454 242.771 123.724 243.96 124.264L243.181 126.079C241.957 125.573 240.928 125.32 240.094 125.32C238.823 125.32 238.187 125.683 238.187 126.407C238.187 126.763 238.351 127.063 238.679 127.31C239.014 127.556 239.739 127.894 240.853 128.325C241.79 128.687 242.47 129.019 242.894 129.319C243.317 129.62 243.632 129.969 243.837 130.365C244.042 130.755 244.145 131.223 244.145 131.77Z" fill="black"/>
</g>
<defs>
<clipPath id="clip0">
<rect width="342" height="222" fill="white"/>
</clipPath>
</defs>
</svg>
