<svg viewBox="0 0 29 30" fill="none" xmlns="http://www.w3.org/2000/svg">
<path d="M12.4925 11.3182C9.09984 11.3182 6.36331 14.0782 6.36331 17.5C6.36331 20.9218 9.09984 23.6818 12.4925 23.6818C15.8852 23.6818 18.6217 20.9218 18.6217 17.5C18.6217 14.0782 15.8852 11.3182 12.4925 11.3182ZM12.4925 21.519C10.3001 21.519 8.50772 19.7166 8.50772 17.5C8.50772 15.2834 10.2947 13.481 12.4925 13.481C14.6903 13.481 16.4773 15.2834 16.4773 17.5C16.4773 19.7166 14.6849 21.519 12.4925 21.519V21.519ZM20.302 11.0654C20.302 11.867 19.6619 12.5072 18.8724 12.5072C18.0776 12.5072 17.4428 11.8616 17.4428 11.0654C17.4428 10.2691 18.0829 9.62348 18.8724 9.62348C19.6619 9.62348 20.302 10.2691 20.302 11.0654ZM24.3615 12.5288C24.2708 10.5973 23.8334 8.8864 22.4304 7.47681C21.0328 6.06721 19.3365 5.62604 17.4214 5.5292C15.4477 5.41621 9.53192 5.41621 7.55821 5.5292C5.6485 5.62066 3.95217 6.06183 2.54924 7.47143C1.1463 8.88102 0.714215 10.5919 0.618196 12.5234C0.506174 14.514 0.506174 20.4806 0.618196 22.4713C0.70888 24.4027 1.1463 26.1136 2.54924 27.5232C3.95217 28.9328 5.64317 29.374 7.55821 29.4708C9.53192 29.5838 15.4477 29.5838 17.4214 29.4708C19.3365 29.3794 21.0328 28.9382 22.4304 27.5232C23.828 26.1136 24.2654 24.4027 24.3615 22.4713C24.4735 20.4806 24.4735 14.5194 24.3615 12.5288V12.5288ZM21.8116 24.6072C21.3956 25.6617 20.5901 26.4741 19.5392 26.8991C17.9656 27.5286 14.2315 27.3833 12.4925 27.3833C10.7535 27.3833 7.0141 27.5232 5.4458 26.8991C4.40026 26.4795 3.59477 25.6671 3.17336 24.6072C2.54924 23.02 2.69326 19.2539 2.69326 17.5C2.69326 15.7461 2.55457 11.9746 3.17336 10.3928C3.58944 9.33834 4.39493 8.52593 5.4458 8.1009C7.01943 7.47143 10.7535 7.61669 12.4925 7.61669C14.2315 7.61669 17.9709 7.47681 19.5392 8.1009C20.5847 8.52055 21.3902 9.33296 21.8116 10.3928C22.4358 11.98 22.2917 15.7461 22.2917 17.5C22.2917 19.2539 22.4358 23.0254 21.8116 24.6072Z" fill="#DFE1EB"/>
<path fill-rule="evenodd" clip-rule="evenodd" d="M23.375 8.125H22.125V9.375C22.125 9.71875 21.8438 10 21.5 10C21.1562 10 20.875 9.71875 20.875 9.375V8.125H19.625C19.2812 8.125 19 7.84375 19 7.5C19 7.15625 19.2812 6.875 19.625 6.875H20.875V5.625C20.875 5.28125 21.1562 5 21.5 5C21.8438 5 22.125 5.28125 22.125 5.625V6.875H23.375C23.7188 6.875 24 7.15625 24 7.5C24 7.84375 23.7188 8.125 23.375 8.125M21.5 1.25C18.0538 1.25 15.25 4.05375 15.25 7.5C15.25 10.9462 18.0538 13.75 21.5 13.75C24.9462 13.75 27.75 10.9462 27.75 7.5C27.75 4.05375 24.9462 1.25 21.5 1.25" fill="#4CF39D"/>
</svg>
