<svg version="1.1" id="_x31_" width="200px" height="200px">
        <path fill="#00F48A" d="M1106.768,385.908c-27.702-65.496-67.355-124.313-117.86-174.817
            c-50.503-50.504-109.32-90.158-174.816-117.86C746.271,64.545,674.24,50,600,50c-74.24,0-146.271,14.545-214.092,43.231
            c-65.496,27.703-124.313,67.357-174.817,117.86s-90.158,109.321-117.86,174.817C64.545,453.729,50,525.76,50,600
            s14.545,146.27,43.231,214.091c27.703,65.497,67.357,124.314,117.86,174.818c50.504,50.503,109.321,90.157,174.817,117.86
            C453.73,1135.456,525.76,1150,600,1150c74.239,0,146.271-14.545,214.092-43.232c65.496-27.703,124.313-67.356,174.816-117.86
            c50.505-50.503,90.158-109.32,117.86-174.818C1135.455,746.27,1150,674.24,1150,600S1135.455,453.729,1106.768,385.908z
             M549.249,472.139v630.477C294.449,1077.081,94.85,861.413,94.85,600C94.85,321.459,321.459,94.85,600,94.85
            c278.54,0,505.15,226.61,505.15,505.15S878.541,1105.151,600,1105.151c0,0,0,0,0,0V699.338h83.154v-50.751H600v-37.473h77.897
            v-50.751H600V522.89h83.154v-50.751H549.249z"/>
</svg>