<svg width="35" height="33" viewBox="0 0 35 33" fill="none" xmlns="http://www.w3.org/2000/svg">
<path d="M26.3343 6.04691L20.7834 4.7554C20.1796 4.61488 19.5623 4.93042 19.318 5.50516L16.7561 11.5328C16.6467 11.7903 16.6232 12.0766 16.6893 12.3487C16.7553 12.6208 16.9073 12.8639 17.1223 13.0413L20.3577 15.7105C18.4377 19.8371 15.077 23.2726 10.8973 25.2499L8.25018 21.9876C8.07426 21.7708 7.83321 21.6175 7.56337 21.5509C7.29353 21.4843 7.00953 21.5079 6.75418 21.6183L0.77651 24.2016C0.206695 24.4478 -0.106447 25.0702 0.032964 25.6793L1.31377 31.2765C1.44688 31.8581 1.96135 32.2777 2.56191 32.2777C16.2302 32.2777 27.3272 21.1085 27.3272 7.30548C27.3272 6.70399 26.9155 6.1821 26.3343 6.04691Z" fill="#DFE1EB"/>
<path fill-rule="evenodd" clip-rule="evenodd" d="M29.1587 8.125H27.9087V9.375C27.9087 9.71875 27.6274 10 27.2837 10C26.9399 10 26.6587 9.71875 26.6587 9.375V8.125H25.4087C25.0649 8.125 24.7837 7.84375 24.7837 7.5C24.7837 7.15625 25.0649 6.875 25.4087 6.875H26.6587V5.625C26.6587 5.28125 26.9399 5 27.2837 5C27.6274 5 27.9087 5.28125 27.9087 5.625V6.875H29.1587C29.5024 6.875 29.7837 7.15625 29.7837 7.5C29.7837 7.84375 29.5024 8.125 29.1587 8.125M27.2837 1.25C23.8374 1.25 21.0337 4.05375 21.0337 7.5C21.0337 10.9462 23.8374 13.75 27.2837 13.75C30.7299 13.75 33.5337 10.9462 33.5337 7.5C33.5337 4.05375 30.7299 1.25 27.2837 1.25" fill="#4CF39D"/>
<mask id="mask0" mask-type="alpha" maskUnits="userSpaceOnUse" x="21" y="1" width="13" height="13">
<path fill-rule="evenodd" clip-rule="evenodd" d="M29.1587 8.125H27.9087V9.375C27.9087 9.71875 27.6274 10 27.2837 10C26.9399 10 26.6587 9.71875 26.6587 9.375V8.125H25.4087C25.0649 8.125 24.7837 7.84375 24.7837 7.5C24.7837 7.15625 25.0649 6.875 25.4087 6.875H26.6587V5.625C26.6587 5.28125 26.9399 5 27.2837 5C27.6274 5 27.9087 5.28125 27.9087 5.625V6.875H29.1587C29.5024 6.875 29.7837 7.15625 29.7837 7.5C29.7837 7.84375 29.5024 8.125 29.1587 8.125M27.2837 1.25C23.8374 1.25 21.0337 4.05375 21.0337 7.5C21.0337 10.9462 23.8374 13.75 27.2837 13.75C30.7299 13.75 33.5337 10.9462 33.5337 7.5C33.5337 4.05375 30.7299 1.25 27.2837 1.25" fill="white"/>
</mask>
<g mask="url(#mask0)">
<rect x="19.7837" width="15" height="15" fill="#4CF39D"/>
</g>
</svg>
