<svg width="342" height="222" viewBox="0 0 342 222" fill="none" xmlns="http://www.w3.org/2000/svg">
<g clip-path="url(#clip0)">
<rect width="342" height="222" fill="white"/>
<path d="M0 0H255L342 109.525L255 224H0V0Z" fill="#00FF9D" fill-opacity="0.4"/>
<path d="M0 20H255L342 108.5L255 201H0V20Z" fill="white"/>
<path d="M17.666 119V104.009H20.1167V116.898H26.4639V119H17.666ZM33.7441 119.205C31.9805 119.205 30.5996 118.692 29.6016 117.667C28.6104 116.635 28.1147 115.216 28.1147 113.412C28.1147 111.559 28.5762 110.103 29.499 109.043C30.4219 107.984 31.6899 107.454 33.3032 107.454C34.8003 107.454 35.9829 107.909 36.8511 108.818C37.7192 109.727 38.1533 110.978 38.1533 112.571V113.873H30.5962C30.6304 114.974 30.9277 115.821 31.4883 116.416C32.0488 117.004 32.8384 117.298 33.8569 117.298C34.5269 117.298 35.1489 117.236 35.7231 117.113C36.3042 116.983 36.9263 116.771 37.5894 116.478V118.436C37.0015 118.716 36.4067 118.915 35.8052 119.031C35.2036 119.147 34.5166 119.205 33.7441 119.205ZM33.3032 109.279C32.5376 109.279 31.9224 109.522 31.4575 110.007C30.9995 110.493 30.7261 111.2 30.6372 112.13H35.7847C35.771 111.193 35.5454 110.486 35.1079 110.007C34.6704 109.522 34.0688 109.279 33.3032 109.279ZM45.1157 117.257C45.7036 117.257 46.2915 117.165 46.8794 116.98V118.795C46.6128 118.911 46.2676 119.007 45.8438 119.082C45.4268 119.164 44.9927 119.205 44.5415 119.205C42.2583 119.205 41.1167 118.002 41.1167 115.596V109.484H39.5684V108.418L41.2295 107.536L42.0498 105.137H43.5366V107.659H46.7666V109.484H43.5366V115.555C43.5366 116.136 43.6802 116.566 43.9673 116.847C44.2612 117.12 44.644 117.257 45.1157 117.257ZM51.0835 104.009L51.2373 104.234C50.875 105.663 50.2734 107.3 49.4326 109.146H47.6895C48.1611 107.17 48.5029 105.458 48.7148 104.009H51.0835ZM60.835 115.77C60.835 116.877 60.4316 117.729 59.625 118.323C58.8184 118.911 57.6631 119.205 56.1592 119.205C54.6484 119.205 53.4351 118.976 52.519 118.518V116.437C53.8521 117.052 55.0928 117.359 56.2412 117.359C57.7246 117.359 58.4663 116.912 58.4663 116.016C58.4663 115.729 58.3843 115.49 58.2202 115.298C58.0562 115.107 57.7861 114.909 57.4102 114.704C57.0342 114.499 56.5112 114.266 55.8413 114.006C54.5356 113.5 53.6504 112.995 53.1855 112.489C52.7275 111.983 52.4985 111.327 52.4985 110.52C52.4985 109.549 52.8882 108.797 53.6675 108.264C54.4536 107.724 55.52 107.454 56.8667 107.454C58.1997 107.454 59.4609 107.724 60.6504 108.264L59.8711 110.079C58.6475 109.573 57.6187 109.32 56.7847 109.32C55.5132 109.32 54.8774 109.683 54.8774 110.407C54.8774 110.763 55.0415 111.063 55.3696 111.31C55.7046 111.556 56.4292 111.894 57.5435 112.325C58.48 112.687 59.1602 113.019 59.584 113.319C60.0078 113.62 60.3223 113.969 60.5273 114.365C60.7324 114.755 60.835 115.223 60.835 115.77ZM78.4819 107.659V108.982L76.5439 109.341C76.7217 109.58 76.8687 109.874 76.9849 110.223C77.1011 110.571 77.1592 110.94 77.1592 111.33C77.1592 112.499 76.7559 113.418 75.9492 114.088C75.1426 114.758 74.0317 115.093 72.6167 115.093C72.2544 115.093 71.9263 115.066 71.6323 115.011C71.1128 115.333 70.853 115.708 70.853 116.139C70.853 116.399 70.9727 116.594 71.2119 116.724C71.458 116.854 71.9058 116.918 72.5552 116.918H74.5342C75.7852 116.918 76.7354 117.185 77.3848 117.718C78.0342 118.251 78.3589 119.021 78.3589 120.025C78.3589 121.311 77.8291 122.302 76.7695 122.999C75.71 123.696 74.1787 124.045 72.1758 124.045C70.6309 124.045 69.4517 123.771 68.6382 123.225C67.8247 122.678 67.418 121.898 67.418 120.887C67.418 120.189 67.6367 119.602 68.0742 119.123C68.5186 118.651 69.1372 118.323 69.9302 118.139C69.6089 118.002 69.3423 117.783 69.1304 117.482C68.9253 117.175 68.8228 116.854 68.8228 116.519C68.8228 116.095 68.9424 115.736 69.1816 115.442C69.4209 115.148 69.7764 114.857 70.248 114.57C69.6602 114.317 69.1816 113.907 68.8125 113.34C68.4502 112.766 68.269 112.096 68.269 111.33C68.269 110.1 68.6553 109.146 69.4277 108.469C70.207 107.792 71.3145 107.454 72.75 107.454C73.0713 107.454 73.4062 107.478 73.7549 107.526C74.1104 107.567 74.377 107.611 74.5547 107.659H78.4819ZM69.5713 120.764C69.5713 121.283 69.8037 121.683 70.2686 121.963C70.7402 122.244 71.3999 122.384 72.2476 122.384C73.5601 122.384 74.5376 122.196 75.1802 121.82C75.8228 121.444 76.144 120.945 76.144 120.323C76.144 119.831 75.9663 119.479 75.6108 119.267C75.2622 119.062 74.6094 118.959 73.6523 118.959H71.8271C71.1367 118.959 70.5864 119.12 70.1763 119.441C69.7729 119.769 69.5713 120.21 69.5713 120.764ZM70.6069 111.33C70.6069 112.041 70.7881 112.588 71.1504 112.971C71.5195 113.354 72.0459 113.545 72.7295 113.545C74.124 113.545 74.8213 112.8 74.8213 111.31C74.8213 110.571 74.647 110.004 74.2983 109.607C73.9565 109.204 73.4336 109.002 72.7295 109.002C72.0322 109.002 71.5024 109.201 71.1401 109.597C70.7847 109.994 70.6069 110.571 70.6069 111.33ZM85.5469 119.205C83.7832 119.205 82.4023 118.692 81.4043 117.667C80.4131 116.635 79.9175 115.216 79.9175 113.412C79.9175 111.559 80.3789 110.103 81.3018 109.043C82.2246 107.984 83.4927 107.454 85.106 107.454C86.603 107.454 87.7856 107.909 88.6538 108.818C89.522 109.727 89.9561 110.978 89.9561 112.571V113.873H82.3989C82.4331 114.974 82.7305 115.821 83.291 116.416C83.8516 117.004 84.6411 117.298 85.6597 117.298C86.3296 117.298 86.9517 117.236 87.5259 117.113C88.1069 116.983 88.729 116.771 89.3921 116.478V118.436C88.8042 118.716 88.2095 118.915 87.6079 119.031C87.0063 119.147 86.3193 119.205 85.5469 119.205ZM85.106 109.279C84.3403 109.279 83.7251 109.522 83.2603 110.007C82.8022 110.493 82.5288 111.2 82.4399 112.13H87.5874C87.5737 111.193 87.3481 110.486 86.9106 110.007C86.4731 109.522 85.8716 109.279 85.106 109.279ZM96.9185 117.257C97.5063 117.257 98.0942 117.165 98.6821 116.98V118.795C98.4155 118.911 98.0703 119.007 97.6465 119.082C97.2295 119.164 96.7954 119.205 96.3442 119.205C94.061 119.205 92.9194 118.002 92.9194 115.596V109.484H91.3711V108.418L93.0322 107.536L93.8525 105.137H95.3394V107.659H98.5693V109.484H95.3394V115.555C95.3394 116.136 95.4829 116.566 95.77 116.847C96.064 117.12 96.4468 117.257 96.9185 117.257ZM113.509 119L113.027 117.421H112.945C112.398 118.111 111.848 118.583 111.294 118.836C110.741 119.082 110.03 119.205 109.162 119.205C108.047 119.205 107.176 118.904 106.547 118.303C105.925 117.701 105.614 116.85 105.614 115.75C105.614 114.581 106.048 113.699 106.916 113.104C107.784 112.509 109.107 112.185 110.884 112.13L112.843 112.068V111.463C112.843 110.739 112.672 110.199 112.33 109.843C111.995 109.481 111.472 109.3 110.761 109.3C110.18 109.3 109.623 109.385 109.09 109.556C108.557 109.727 108.044 109.929 107.552 110.161L106.772 108.438C107.388 108.117 108.061 107.875 108.792 107.71C109.524 107.54 110.214 107.454 110.864 107.454C112.306 107.454 113.393 107.769 114.125 108.397C114.863 109.026 115.232 110.014 115.232 111.361V119H113.509ZM109.92 117.359C110.795 117.359 111.496 117.117 112.022 116.631C112.556 116.139 112.822 115.452 112.822 114.57V113.586L111.366 113.647C110.231 113.688 109.404 113.88 108.885 114.222C108.372 114.557 108.116 115.073 108.116 115.77C108.116 116.276 108.266 116.669 108.567 116.949C108.868 117.223 109.319 117.359 109.92 117.359ZM123.168 119.205C121.453 119.205 120.147 118.706 119.251 117.708C118.363 116.703 117.918 115.264 117.918 113.391C117.918 111.484 118.383 110.018 119.313 108.992C120.25 107.967 121.6 107.454 123.363 107.454C124.56 107.454 125.636 107.676 126.593 108.121L125.865 110.059C124.847 109.662 124.006 109.464 123.343 109.464C121.381 109.464 120.4 110.766 120.4 113.371C120.4 114.642 120.643 115.599 121.128 116.242C121.62 116.877 122.338 117.195 123.281 117.195C124.354 117.195 125.37 116.929 126.327 116.396V118.498C125.896 118.75 125.435 118.932 124.942 119.041C124.457 119.15 123.866 119.205 123.168 119.205ZM133.484 117.277C134.496 117.277 135.22 116.987 135.658 116.406C136.102 115.818 136.324 114.933 136.324 113.75V113.371C136.324 111.969 136.095 110.961 135.637 110.346C135.186 109.73 134.455 109.423 133.443 109.423C132.582 109.423 131.925 109.765 131.474 110.448C131.023 111.132 130.797 112.113 130.797 113.391C130.797 115.982 131.693 117.277 133.484 117.277ZM132.797 119.205C131.396 119.205 130.298 118.692 129.505 117.667C128.712 116.635 128.316 115.196 128.316 113.35C128.316 111.504 128.719 110.062 129.526 109.023C130.333 107.977 131.443 107.454 132.858 107.454C133.569 107.454 134.205 107.587 134.766 107.854C135.333 108.114 135.839 108.544 136.283 109.146H136.365L136.632 107.659H138.631V124.045H136.211V119.236C136.211 118.935 136.225 118.617 136.252 118.282C136.28 117.947 136.304 117.691 136.324 117.513H136.191C135.48 118.641 134.349 119.205 132.797 119.205ZM150.075 119L149.736 117.513H149.613C149.278 118.04 148.8 118.453 148.178 118.754C147.562 119.055 146.858 119.205 146.065 119.205C144.691 119.205 143.666 118.863 142.989 118.18C142.312 117.496 141.974 116.46 141.974 115.073V107.659H144.404V114.652C144.404 115.521 144.582 116.173 144.938 116.611C145.293 117.042 145.85 117.257 146.609 117.257C147.621 117.257 148.362 116.956 148.834 116.354C149.312 115.746 149.552 114.731 149.552 113.309V107.659H151.972V119H150.075ZM162.502 119L162.021 117.421H161.938C161.392 118.111 160.841 118.583 160.288 118.836C159.734 119.082 159.023 119.205 158.155 119.205C157.041 119.205 156.169 118.904 155.54 118.303C154.918 117.701 154.607 116.85 154.607 115.75C154.607 114.581 155.041 113.699 155.909 113.104C156.777 112.509 158.1 112.185 159.877 112.13L161.836 112.068V111.463C161.836 110.739 161.665 110.199 161.323 109.843C160.988 109.481 160.465 109.3 159.754 109.3C159.173 109.3 158.616 109.385 158.083 109.556C157.55 109.727 157.037 109.929 156.545 110.161L155.766 108.438C156.381 108.117 157.054 107.875 157.786 107.71C158.517 107.54 159.208 107.454 159.857 107.454C161.299 107.454 162.386 107.769 163.118 108.397C163.856 109.026 164.225 110.014 164.225 111.361V119H162.502ZM158.914 117.359C159.789 117.359 160.489 117.117 161.016 116.631C161.549 116.139 161.815 115.452 161.815 114.57V113.586L160.359 113.647C159.225 113.688 158.397 113.88 157.878 114.222C157.365 114.557 157.109 115.073 157.109 115.77C157.109 116.276 157.259 116.669 157.56 116.949C157.861 117.223 158.312 117.359 158.914 117.359ZM169.998 119H167.588V107.659H169.998V119ZM167.445 104.655C167.445 104.224 167.561 103.893 167.793 103.66C168.033 103.428 168.371 103.312 168.809 103.312C169.232 103.312 169.561 103.428 169.793 103.66C170.032 103.893 170.152 104.224 170.152 104.655C170.152 105.065 170.032 105.39 169.793 105.629C169.561 105.861 169.232 105.978 168.809 105.978C168.371 105.978 168.033 105.861 167.793 105.629C167.561 105.39 167.445 105.065 167.445 104.655ZM183.431 119H181.011V112.027C181.011 111.152 180.833 110.5 180.478 110.069C180.129 109.638 179.572 109.423 178.806 109.423C177.788 109.423 177.042 109.724 176.571 110.325C176.099 110.927 175.863 111.935 175.863 113.35V119H173.454V107.659H175.34L175.679 109.146H175.802C176.144 108.606 176.629 108.189 177.258 107.895C177.887 107.601 178.584 107.454 179.35 107.454C182.07 107.454 183.431 108.838 183.431 111.607V119ZM191.008 117.257C191.596 117.257 192.184 117.165 192.772 116.98V118.795C192.505 118.911 192.16 119.007 191.736 119.082C191.319 119.164 190.885 119.205 190.434 119.205C188.151 119.205 187.009 118.002 187.009 115.596V109.484H185.461V108.418L187.122 107.536L187.942 105.137H189.429V107.659H192.659V109.484H189.429V115.555C189.429 116.136 189.573 116.566 189.86 116.847C190.154 117.12 190.537 117.257 191.008 117.257ZM200.001 119.205C198.237 119.205 196.856 118.692 195.858 117.667C194.867 116.635 194.372 115.216 194.372 113.412C194.372 111.559 194.833 110.103 195.756 109.043C196.679 107.984 197.947 107.454 199.56 107.454C201.057 107.454 202.24 107.909 203.108 108.818C203.976 109.727 204.41 110.978 204.41 112.571V113.873H196.853C196.887 114.974 197.185 115.821 197.745 116.416C198.306 117.004 199.095 117.298 200.114 117.298C200.784 117.298 201.406 117.236 201.98 117.113C202.561 116.983 203.183 116.771 203.846 116.478V118.436C203.258 118.716 202.664 118.915 202.062 119.031C201.46 119.147 200.773 119.205 200.001 119.205ZM199.56 109.279C198.794 109.279 198.179 109.522 197.714 110.007C197.256 110.493 196.983 111.2 196.894 112.13H202.042C202.028 111.193 201.802 110.486 201.365 110.007C200.927 109.522 200.326 109.279 199.56 109.279ZM210.973 119.205C209.558 119.205 208.454 118.692 207.661 117.667C206.868 116.642 206.471 115.203 206.471 113.35C206.471 111.491 206.871 110.045 207.671 109.013C208.478 107.974 209.592 107.454 211.014 107.454C212.504 107.454 213.639 108.004 214.418 109.105H214.541C214.425 108.292 214.367 107.649 214.367 107.177V103.045H216.787V119H214.9L214.479 117.513H214.367C213.594 118.641 212.463 119.205 210.973 119.205ZM211.619 117.257C212.61 117.257 213.331 116.98 213.782 116.426C214.233 115.866 214.466 114.96 214.479 113.709V113.371C214.479 111.942 214.247 110.927 213.782 110.325C213.317 109.724 212.589 109.423 211.598 109.423C210.75 109.423 210.098 109.768 209.64 110.458C209.182 111.142 208.953 112.12 208.953 113.391C208.953 114.649 209.175 115.609 209.619 116.272C210.063 116.929 210.73 117.257 211.619 117.257ZM222.313 114.447H220.529L219.996 104.009H222.836L222.313 114.447ZM219.873 117.718C219.873 117.212 220.006 116.83 220.273 116.57C220.54 116.303 220.919 116.17 221.411 116.17C221.896 116.17 222.269 116.307 222.529 116.58C222.789 116.854 222.918 117.233 222.918 117.718C222.918 118.204 222.785 118.59 222.519 118.877C222.259 119.157 221.89 119.297 221.411 119.297C220.926 119.297 220.546 119.161 220.273 118.887C220.006 118.614 219.873 118.224 219.873 117.718Z" fill="black"/>
</g>
<defs>
<clipPath id="clip0">
<rect width="342" height="222" fill="white"/>
</clipPath>
</defs>
</svg>
