<svg viewBox="0 0 35 30" fill="none" xmlns="http://www.w3.org/2000/svg">
<path d="M24.5182 12.8853C24.5356 13.1301 24.5356 13.375 24.5356 13.6199C24.5356 21.0887 18.9002 29.6944 8.60047 29.6944C5.4273 29.6944 2.47958 28.7673 0 27.1582C0.450847 27.2107 0.884294 27.2282 1.35249 27.2282C3.97073 27.2282 6.38098 26.3361 8.30568 24.8144C5.84345 24.7619 3.78003 23.1352 3.06909 20.8963C3.41591 20.9487 3.76268 20.9837 4.12685 20.9837C4.62968 20.9837 5.13257 20.9137 5.60071 20.7914C3.03445 20.2666 1.10969 17.9927 1.10969 15.2466V15.1767C1.85527 15.5964 2.72232 15.8588 3.64126 15.8938C2.1327 14.8792 1.14438 13.1476 1.14438 11.1886C1.14438 10.1391 1.42177 9.17709 1.90731 8.3375C4.66432 11.7658 8.80852 14.0047 13.4555 14.2496C13.3688 13.8298 13.3168 13.3925 13.3168 12.9552C13.3168 9.84175 15.8137 7.30554 18.9175 7.30554C20.5301 7.30554 21.9866 7.9877 23.0096 9.08966C24.2754 8.84479 25.4892 8.3725 26.5643 7.72534C26.1481 9.03722 25.2638 10.1392 24.102 10.8388C25.2291 10.7164 26.3215 10.4015 27.3272 9.96424C26.5644 11.0836 25.6106 12.0806 24.5182 12.8853V12.8853Z" fill="#DFE1EB"/>
<path fill-rule="evenodd" clip-rule="evenodd" d="M29.168 8.125H27.918V9.375C27.918 9.71875 27.6367 10 27.293 10C26.9492 10 26.668 9.71875 26.668 9.375V8.125H25.418C25.0742 8.125 24.793 7.84375 24.793 7.5C24.793 7.15625 25.0742 6.875 25.418 6.875H26.668V5.625C26.668 5.28125 26.9492 5 27.293 5C27.6367 5 27.918 5.28125 27.918 5.625V6.875H29.168C29.5117 6.875 29.793 7.15625 29.793 7.5C29.793 7.84375 29.5117 8.125 29.168 8.125M27.293 1.25C23.8467 1.25 21.043 4.05375 21.043 7.5C21.043 10.9462 23.8467 13.75 27.293 13.75C30.7392 13.75 33.543 10.9462 33.543 7.5C33.543 4.05375 30.7392 1.25 27.293 1.25" fill="#4CF39D"/>
<path fill-rule="evenodd" clip-rule="evenodd" d="M29.168 8.125H27.918V9.375C27.918 9.71875 27.6367 10 27.293 10C26.9492 10 26.668 9.71875 26.668 9.375V8.125H25.418C25.0742 8.125 24.793 7.84375 24.793 7.5C24.793 7.15625 25.0742 6.875 25.418 6.875H26.668V5.625C26.668 5.28125 26.9492 5 27.293 5C27.6367 5 27.918 5.28125 27.918 5.625V6.875H29.168C29.5117 6.875 29.793 7.15625 29.793 7.5C29.793 7.84375 29.5117 8.125 29.168 8.125M27.293 1.25C23.8467 1.25 21.043 4.05375 21.043 7.5C21.043 10.9462 23.8467 13.75 27.293 13.75C30.7392 13.75 33.543 10.9462 33.543 7.5C33.543 4.05375 30.7392 1.25 27.293 1.25" fill="white"/>
<rect x="19.793" width="15" height="15" fill="#4CF39D"/>
</svg>
