<svg width="31" height="31" viewBox="0 0 31 31" fill="none" xmlns="http://www.w3.org/2000/svg">
<path d="M19.7556 13.6249H26.7705C27.0608 14.7239 27.2164 15.8783 27.2164 17.0694C27.2164 18.2605 27.0608 19.4149 26.7705 20.5138H19.7556C20.0307 18.197 20.0192 15.8452 19.7556 13.6249ZM10.2017 22.2361C10.7716 25.1251 11.9723 28.2915 13.9445 30.4162C13.9563 30.4162 13.968 30.4166 13.9798 30.4166C13.9916 30.4166 14.0033 30.4162 14.0151 30.4162C15.9905 28.288 17.189 25.1196 17.7579 22.2361H10.2017ZM19.4956 11.9027H26.1879C24.4838 7.81374 20.8184 4.76115 16.3789 3.94148C17.9929 6.26218 18.9847 9.12602 19.4956 11.9027ZM18.0359 13.6249H9.92373C9.63877 15.8807 9.63845 18.2554 9.92373 20.5138H18.0359C18.3209 18.258 18.3212 15.8834 18.0359 13.6249V13.6249ZM8.46397 22.2361H1.77173C3.47573 26.325 7.1411 29.3776 11.5806 30.1973C9.96627 27.8757 8.97475 25.0118 8.46397 22.2361V22.2361ZM19.4956 22.2361C18.9846 25.0134 17.9925 27.8771 16.3789 30.1973C20.8184 29.3776 24.4838 26.325 26.1878 22.2361H19.4956ZM17.7579 11.9027C17.188 9.0137 15.9873 5.84728 14.0151 3.7226C14.0033 3.7226 13.9916 3.72217 13.9798 3.72217C13.968 3.72217 13.9563 3.7226 13.9445 3.7226C11.9691 5.85078 10.7706 9.01919 10.2017 11.9027H17.7579ZM1.1891 13.6249C0.898748 14.7239 0.743164 15.8783 0.743164 17.0694C0.743164 18.2605 0.898748 19.4149 1.1891 20.5138H8.20398C7.94037 18.2936 7.9289 15.9418 8.20398 13.6249H1.1891ZM8.46397 11.9027C8.97502 9.12553 9.96702 6.26191 11.5807 3.94148C7.14116 4.76115 3.47578 7.81374 1.77173 11.9027H8.46397V11.9027Z" fill="#DFE1EB"/>
<path fill-rule="evenodd" clip-rule="evenodd" d="M25.375 8.125H24.125V9.375C24.125 9.71875 23.8438 10 23.5 10C23.1562 10 22.875 9.71875 22.875 9.375V8.125H21.625C21.2812 8.125 21 7.84375 21 7.5C21 7.15625 21.2812 6.875 21.625 6.875H22.875V5.625C22.875 5.28125 23.1562 5 23.5 5C23.8438 5 24.125 5.28125 24.125 5.625V6.875H25.375C25.7188 6.875 26 7.15625 26 7.5C26 7.84375 25.7188 8.125 25.375 8.125M23.5 1.25C20.0538 1.25 17.25 4.05375 17.25 7.5C17.25 10.9462 20.0538 13.75 23.5 13.75C26.9462 13.75 29.75 10.9462 29.75 7.5C29.75 4.05375 26.9462 1.25 23.5 1.25" fill="#4CF39D"/>
<mask id="mask0" mask-type="alpha" maskUnits="userSpaceOnUse" x="17" y="1" width="13" height="13">
<path fill-rule="evenodd" clip-rule="evenodd" d="M25.375 8.125H24.125V9.375C24.125 9.71875 23.8438 10 23.5 10C23.1562 10 22.875 9.71875 22.875 9.375V8.125H21.625C21.2812 8.125 21 7.84375 21 7.5C21 7.15625 21.2812 6.875 21.625 6.875H22.875V5.625C22.875 5.28125 23.1562 5 23.5 5C23.8438 5 24.125 5.28125 24.125 5.625V6.875H25.375C25.7188 6.875 26 7.15625 26 7.5C26 7.84375 25.7188 8.125 25.375 8.125M23.5 1.25C20.0538 1.25 17.25 4.05375 17.25 7.5C17.25 10.9462 20.0538 13.75 23.5 13.75C26.9462 13.75 29.75 10.9462 29.75 7.5C29.75 4.05375 26.9462 1.25 23.5 1.25" fill="white"/>
</mask>
<g mask="url(#mask0)">
<rect x="16" width="15" height="15" fill="#4CF39D"/>
</g>
</svg>
